<?xml version="1.0" encoding="utf-8"?>
<!-- Generator: Adobe Illustrator 27.9.0, SVG Export Plug-In . SVG Version: 6.00 Build 0)  -->
<svg version="1.1" id="Calque_1" xmlns="http://www.w3.org/2000/svg" xmlns:xlink="http://www.w3.org/1999/xlink" x="0px" y="0px"
	 viewBox="0 0 24 24" style="enable-background:new 0 0 24 24;" xml:space="preserve">
<style type="text/css">
	.st0{fill:#FFFFFF;}
</style>
<path class="st0" d="M3,20V5c0-0.5,0.2-1,0.6-1.4S4.5,3,5,3h12c0.6,0,1,0.2,1.4,0.6S19,4.4,19,5v5.1c-0.2,0-0.3-0.1-0.5-0.1
	c-0.2,0-0.3,0-0.5,0c-0.2,0-0.3,0-0.5,0c-0.2,0-0.3,0-0.5,0.1V5H5v10h7.1c0,0.2-0.1,0.3-0.1,0.5c0,0.2,0,0.3,0,0.5
	c0,0.2,0,0.3,0,0.5c0,0.2,0,0.3,0.1,0.5H6L3,20z M7,9h8V7H7V9z M7,13h5v-2H7V13z M17,20v-3h-3v-2h3v-3h2v3h3v2h-3v3H17z M5,15V5V15z
	"/>
</svg>
