<?xml version="1.0" encoding="utf-8"?>
<!-- Generator: Adobe Illustrator 27.9.0, SVG Export Plug-In . SVG Version: 6.00 Build 0)  -->
<svg version="1.1" id="Calque_1" xmlns="http://www.w3.org/2000/svg" xmlns:xlink="http://www.w3.org/1999/xlink" x="0px" y="0px"
	 viewBox="0 0 24 24" style="enable-background:new 0 0 24 24;" xml:space="preserve">
<style type="text/css">
	.st0{fill:#FFFFFF;}
</style>
<path class="st0" d="M6.5,15v-1H4v-2h5v-2H5c-0.3,0-0.5-0.1-0.7-0.3C4.1,9.5,4,9.3,4,9V5c0-0.3,0.1-0.5,0.3-0.7C4.5,4.1,4.7,4,5,4
	h1.5V3h2v1H11v2H6v2h4c0.3,0,0.5,0.1,0.7,0.3C10.9,8.5,11,8.7,11,9v4c0,0.3-0.1,0.5-0.3,0.7C10.5,13.9,10.3,14,10,14H8.5v1H6.5z
	 M13.9,21l-4.2-4.2l1.4-1.4l2.8,2.8l5.7-5.6l1.4,1.4L13.9,21z"/>
</svg>
