<?xml version="1.0" encoding="utf-8"?>
<!-- Generator: Adobe Illustrator 27.9.0, SVG Export Plug-In . SVG Version: 6.00 Build 0)  -->
<svg version="1.1" id="Calque_1" xmlns="http://www.w3.org/2000/svg" xmlns:xlink="http://www.w3.org/1999/xlink" x="0px" y="0px"
	 viewBox="0 0 24 24" style="enable-background:new 0 0 24 24;" xml:space="preserve">
<style type="text/css">
	.st0{fill:#FFFFFF;}
</style>
<path class="st0" d="M11.1,19h1.8v-1.2c0.8-0.1,1.6-0.5,2.1-1c0.6-0.5,0.9-1.2,0.9-2.2c0-0.7-0.2-1.3-0.6-1.9
	c-0.4-0.6-1.2-1.1-2.4-1.5c-1-0.3-1.7-0.6-2.1-0.9c-0.4-0.2-0.6-0.6-0.6-1s0.2-0.8,0.5-1c0.3-0.3,0.8-0.4,1.3-0.4
	c0.5,0,0.9,0.1,1.2,0.4c0.3,0.3,0.5,0.6,0.6,1l1.6-0.6c-0.2-0.6-0.5-1.1-1-1.5c-0.5-0.4-1-0.7-1.6-0.7V5h-1.8v1.2
	c-0.8,0.2-1.5,0.6-2,1.1C8.7,7.9,8.5,8.5,8.5,9.2c0,0.8,0.2,1.4,0.7,1.9c0.5,0.5,1.2,0.9,2.2,1.2c1.1,0.4,1.8,0.7,2.2,1
	s0.6,0.7,0.6,1.2c0,0.5-0.2,1-0.6,1.2c-0.4,0.3-0.9,0.4-1.4,0.4c-0.6,0-1-0.2-1.5-0.5s-0.7-0.9-0.9-1.5l-1.6,0.7
	c0.2,0.8,0.6,1.4,1.1,1.9c0.5,0.5,1.1,0.8,1.9,1V19z M12,22c-1.4,0-2.7-0.3-3.9-0.8S5.8,20,4.9,19.1c-0.9-0.9-1.6-2-2.1-3.2
	S2,13.4,2,12s0.3-2.7,0.8-3.9S4,5.8,4.9,4.9s2-1.6,3.2-2.1S10.6,2,12,2s2.7,0.3,3.9,0.8s2.3,1.2,3.2,2.1s1.6,2,2.1,3.2
	C21.7,9.3,22,10.6,22,12s-0.3,2.7-0.8,3.9c-0.5,1.2-1.2,2.3-2.1,3.2c-0.9,0.9-2,1.6-3.2,2.1S13.4,22,12,22z M12,20
	c2.2,0,4.1-0.8,5.7-2.3c1.5-1.5,2.3-3.4,2.3-5.7s-0.8-4.1-2.3-5.7C16.1,4.8,14.2,4,12,4S7.9,4.8,6.3,6.3S4,9.8,4,12s0.8,4.1,2.3,5.7
	C7.9,19.2,9.8,20,12,20z"/>
</svg>
