<?xml version="1.0" encoding="utf-8"?>
<!-- Generator: Adobe Illustrator 27.9.0, SVG Export Plug-In . SVG Version: 6.00 Build 0)  -->
<svg version="1.1" id="Calque_1" xmlns="http://www.w3.org/2000/svg" xmlns:xlink="http://www.w3.org/1999/xlink" x="0px" y="0px"
	 viewBox="0 0 24 24" style="enable-background:new 0 0 24 24;" xml:space="preserve">
<style type="text/css">
	.st0{fill:#FFFFFF;}
</style>
<path class="st0" d="M11,17H7c-1.4,0-2.6-0.5-3.5-1.5c-1-1-1.5-2.2-1.5-3.5s0.5-2.6,1.5-3.5S5.6,7,7,7h4v2H7C6.2,9,5.5,9.3,4.9,9.9
	S4,11.2,4,12s0.3,1.5,0.9,2.1C5.5,14.7,6.2,15,7,15h4V17z M8,13v-2h8v2H8z M13,17v-2h4c0.8,0,1.5-0.3,2.1-0.9
	c0.6-0.6,0.9-1.3,0.9-2.1s-0.3-1.5-0.9-2.1C18.5,9.3,17.8,9,17,9h-4V7h4c1.4,0,2.6,0.5,3.5,1.5S22,10.6,22,12s-0.5,2.6-1.5,3.5
	c-1,1-2.2,1.5-3.5,1.5H13z"/>
</svg>
