<?xml version="1.0" encoding="utf-8"?>
<!-- Generator: Adobe Illustrator 27.9.0, SVG Export Plug-In . SVG Version: 6.00 Build 0)  -->
<svg version="1.1" xmlns="http://www.w3.org/2000/svg" xmlns:xlink="http://www.w3.org/1999/xlink" x="0px" y="0px"
	 viewBox="0 0 24 24" style="enable-background:new 0 0 24 24;" xml:space="preserve">
<style type="text/css">
	.st0{fill:#FFE494;}
	.st1{fill:#111016;}
</style>
<g id="Calque_2">
</g>
<g id="Calque_1">
	<polygon class="st0" points="12,2.2 14.4,9.7 22.3,9.7 15.9,14.3 18.4,21.8 12,17.2 5.6,21.8 8.1,14.3 1.7,9.7 9.6,9.7 	"/>
	<g>
		<path class="st1" d="M11.7,12.2c0.7,0,1.2,0.2,1.6,0.6c0.4,0.4,0.5,0.9,0.5,1.4c0,0.7-0.2,1.2-0.7,1.6c-0.5,0.4-1,0.6-1.7,0.6
			c-0.7,0-1.2-0.2-1.6-0.5C9.3,15.5,9,15,9,14.4h1.4c0,0.2,0.2,0.4,0.3,0.6c0.2,0.1,0.4,0.2,0.7,0.2c0.3,0,0.6-0.1,0.8-0.3
			c0.2-0.2,0.3-0.4,0.3-0.8c0-0.3-0.1-0.6-0.3-0.8c-0.2-0.2-0.4-0.3-0.8-0.3c-0.5,0-0.8,0.2-1,0.5H9.1l0.6-3.6h3.8v1.2h-2.7
			l-0.2,1.3C10.9,12.3,11.2,12.2,11.7,12.2z"/>
	</g>
</g>
</svg>
