<?xml version="1.0" encoding="utf-8"?>
<!-- Generator: Adobe Illustrator 27.9.0, SVG Export Plug-In . SVG Version: 6.00 Build 0)  -->
<svg version="1.1" xmlns="http://www.w3.org/2000/svg" xmlns:xlink="http://www.w3.org/1999/xlink" x="0px" y="0px"
	 viewBox="0 0 24 24" style="enable-background:new 0 0 24 24;" xml:space="preserve">
<style type="text/css">
	.st0{fill:#FFE494;}
	.st1{fill:#111016;}
</style>
<g id="Calque_2">
</g>
<g id="Calque_1">
	<polygon class="st0" points="12,2.2 14.4,9.7 22.3,9.7 15.9,14.3 18.4,21.8 12,17.2 5.6,21.8 8.1,14.3 1.7,9.7 9.6,9.7 	"/>
	<g>
		<path class="st1" d="M10.6,15h3.1v1.2H9l0-0.5c0-0.4,0.1-0.8,0.2-1.1c0.1-0.2,0.2-0.4,0.3-0.6c0.3-0.4,0.7-0.7,1.3-0.9l0.5-0.2
			c0.3-0.1,0.6-0.3,0.7-0.4s0.2-0.3,0.2-0.6c0-0.2-0.1-0.4-0.2-0.6c-0.2-0.1-0.4-0.2-0.6-0.2c-0.6,0-0.9,0.3-0.9,1H9
			c0-0.7,0.2-1.2,0.6-1.6c0.4-0.4,1-0.6,1.8-0.6c0.7,0,1.3,0.2,1.7,0.5c0.4,0.3,0.6,0.8,0.6,1.3c0,0.5-0.1,1-0.4,1.3
			c-0.3,0.3-0.7,0.6-1.4,0.9l-0.5,0.2c-0.3,0.1-0.5,0.2-0.6,0.4C10.7,14.7,10.6,14.8,10.6,15z"/>
	</g>
</g>
</svg>
