<?xml version="1.0" encoding="utf-8"?>
<!-- Generator: Adobe Illustrator 27.9.0, SVG Export Plug-In . SVG Version: 6.00 Build 0)  -->
<svg version="1.1" id="Calque_1" xmlns="http://www.w3.org/2000/svg" xmlns:xlink="http://www.w3.org/1999/xlink" x="0px" y="0px"
	 viewBox="0 0 24 24" style="enable-background:new 0 0 24 24;" xml:space="preserve">
<style type="text/css">
	.st0{fill:#FFE494;}
</style>
<path class="st0" d="M12,17c0.3,0,0.5-0.1,0.7-0.3c0.2-0.2,0.3-0.4,0.3-0.7c0-0.3-0.1-0.5-0.3-0.7C12.5,15.1,12.3,15,12,15
	s-0.5,0.1-0.7,0.3C11.1,15.5,11,15.7,11,16c0,0.3,0.1,0.5,0.3,0.7C11.5,16.9,11.7,17,12,17z M12,13c0.3,0,0.5-0.1,0.7-0.3
	S13,12.3,13,12s-0.1-0.5-0.3-0.7S12.3,11,12,11s-0.5,0.1-0.7,0.3S11,11.7,11,12s0.1,0.5,0.3,0.7S11.7,13,12,13z M12,9
	c0.3,0,0.5-0.1,0.7-0.3C12.9,8.5,13,8.3,13,8c0-0.3-0.1-0.5-0.3-0.7C12.5,7.1,12.3,7,12,7s-0.5,0.1-0.7,0.3C11.1,7.5,11,7.7,11,8
	c0,0.3,0.1,0.5,0.3,0.7C11.5,8.9,11.7,9,12,9z M20,20H4c-0.5,0-1-0.2-1.4-0.6S2,18.5,2,18v-4c0.5,0,1-0.2,1.4-0.6S4,12.6,4,12
	s-0.2-1-0.6-1.4S2.5,10,2,10V6c0-0.5,0.2-1,0.6-1.4C3,4.2,3.5,4,4,4h16c0.6,0,1,0.2,1.4,0.6C21.8,5,22,5.4,22,6v4
	c-0.5,0-1,0.2-1.4,0.6C20.2,11,20,11.4,20,12s0.2,1,0.6,1.4C21,13.8,21.5,14,22,14v4c0,0.5-0.2,1-0.6,1.4S20.6,20,20,20z M20,18
	v-2.6c-0.6-0.4-1.1-0.9-1.5-1.5S18,12.7,18,12s0.2-1.4,0.5-2s0.8-1.1,1.5-1.5V6H4v2.6C4.6,8.9,5.1,9.4,5.5,10S6,11.3,6,12
	s-0.2,1.4-0.5,2S4.6,15.1,4,15.4V18H20z"/>
</svg>
