<?xml version="1.0" encoding="utf-8"?>
<!-- Generator: Adobe Illustrator 27.9.0, SVG Export Plug-In . SVG Version: 6.00 Build 0)  -->
<svg version="1.1" id="Calque_1" xmlns="http://www.w3.org/2000/svg" xmlns:xlink="http://www.w3.org/1999/xlink" x="0px" y="0px"
	 viewBox="0 0 24 24" style="enable-background:new 0 0 24 24;" xml:space="preserve">
<style type="text/css">
	.st0{fill:#FFE494;}
</style>
<path class="st0" d="M9,3V1h6v2H9z M11,14h2V8h-2V14z M12,22c-1.2,0-2.4-0.2-3.5-0.7s-2-1.1-2.9-1.9c-0.8-0.8-1.5-1.8-1.9-2.9
	S3,14.2,3,13s0.2-2.4,0.7-3.5s1.1-2,1.9-2.9s1.8-1.5,2.9-1.9S10.8,4,12,4c1,0,2,0.2,3,0.5c0.9,0.3,1.8,0.8,2.7,1.5l1.4-1.4l1.4,1.4
	l-1.4,1.4c0.6,0.8,1.1,1.7,1.4,2.7C20.8,11,21,12,21,13c0,1.2-0.2,2.4-0.7,3.5s-1.1,2-1.9,2.9c-0.8,0.8-1.8,1.5-2.9,1.9
	S13.2,22,12,22z M12,20c1.9,0,3.6-0.7,5-2s2-3,2-5s-0.7-3.6-2-4.9S13.9,6,12,6S8.4,6.7,7.1,8.1S5,11.1,5,13s0.7,3.6,2.1,5
	S10.1,20,12,20z"/>
</svg>
